<svg width="20" height="22" viewBox="0 0 20 22" fill="none" xmlns="http://www.w3.org/2000/svg">
<path fill-rule="evenodd" clip-rule="evenodd" d="M6.00039 0.149902C6.46983 0.149902 6.85039 0.53046 6.85039 0.999902V2.1499H13.1504V0.999902C13.1504 0.53046 13.5309 0.149902 14.0004 0.149902C14.4698 0.149902 14.8504 0.53046 14.8504 0.999902V2.1499H17.0004C18.5744 2.1499 19.8504 3.42589 19.8504 4.9999V18.9999C19.8504 20.5739 18.5744 21.8499 17.0004 21.8499H3.00039C1.42638 21.8499 0.150391 20.5739 0.150391 18.9999V4.9999C0.150391 3.42589 1.42638 2.1499 3.00039 2.1499H5.15039V0.999902C5.15039 0.53046 5.53095 0.149902 6.00039 0.149902ZM5.15039 3.8499H3.00039C2.36526 3.8499 1.85039 4.36477 1.85039 4.9999V8.1499H18.1504V4.9999C18.1504 4.36477 17.6355 3.8499 17.0004 3.8499H14.8504V4.9999C14.8504 5.46934 14.4698 5.8499 14.0004 5.8499C13.5309 5.8499 13.1504 5.46934 13.1504 4.9999V3.8499H6.85039V4.9999C6.85039 5.46934 6.46983 5.8499 6.00039 5.8499C5.53095 5.8499 5.15039 5.46934 5.15039 4.9999V3.8499ZM18.1504 9.8499H1.85039V18.9999C1.85039 19.635 2.36526 20.1499 3.00039 20.1499H17.0004C17.6355 20.1499 18.1504 19.635 18.1504 18.9999V9.8499Z" fill="#B79DCB"/>
</svg>
