<svg width="24" height="24" viewBox="0 0 24 24" fill="none" xmlns="http://www.w3.org/2000/svg">
<path fill-rule="evenodd" clip-rule="evenodd" d="M12.0004 2.8499C6.94699 2.8499 2.85039 6.9465 2.85039 11.9999C2.85039 17.0533 6.94699 21.1499 12.0004 21.1499C17.0538 21.1499 21.1504 17.0533 21.1504 11.9999C21.1504 6.9465 17.0538 2.8499 12.0004 2.8499ZM1.15039 11.9999C1.15039 6.00761 6.0081 1.1499 12.0004 1.1499C17.9927 1.1499 22.8504 6.00761 22.8504 11.9999C22.8504 17.9922 17.9927 22.8499 12.0004 22.8499C6.0081 22.8499 1.15039 17.9922 1.15039 11.9999ZM12.0004 5.1499C12.4698 5.1499 12.8504 5.53046 12.8504 5.9999V11.4746L16.3805 13.2396C16.8004 13.4496 16.9706 13.9602 16.7607 14.38C16.5507 14.7999 16.0401 14.9701 15.6203 14.7602L11.6203 12.7602C11.3323 12.6162 11.1504 12.3219 11.1504 11.9999V5.9999C11.1504 5.53046 11.5309 5.1499 12.0004 5.1499Z" fill="#B79DCB"/>
</svg>
