<svg width="12" height="11" viewBox="0 0 12 11" fill="none" xmlns="http://www.w3.org/2000/svg">
<path d="M6.94868 0.846051C6.64478 -0.0656459 5.35522 -0.0656469 5.05132 0.84605L4.47792 2.56623C4.34181 2.97457 3.95967 3.25 3.52924 3.25H1.85078C0.905503 3.25 0.487948 4.44036 1.22609 5.03087L2.83051 6.31441C3.15766 6.57613 3.28699 7.01404 3.1545 7.4115L2.69582 8.78755C2.3807 9.73291 3.49106 10.5072 4.2692 9.88464L5.37531 8.99976C5.74052 8.70758 6.25948 8.70758 6.62469 8.99976L7.73081 9.88464C8.50895 10.5072 9.61931 9.73292 9.30418 8.78755L8.8455 7.41151C8.71301 7.01404 8.84234 6.57613 9.16949 6.31441L10.7739 5.03087C11.5121 4.44036 11.0945 3.25 10.1492 3.25H8.47076C8.04033 3.25 7.65819 2.97457 7.52208 2.56623L6.94868 0.846051Z" fill="#71717A"/>
</svg>
